<svg xmlns="http://www.w3.org/2000/svg" width="1200" height="700" viewBox="0 0 1200 700">
  <defs>
    <linearGradient id="bg" x1="0" y1="0" x2="1" y2="1"><stop offset="0" stop-color="#193427"/><stop offset="1" stop-color="#0a1a12"/></linearGradient>
    <linearGradient id="beer" x1="0" y1="0" x2="0" y2="1"><stop offset="0" stop-color="#ffd768"/><stop offset="1" stop-color="#d98600"/></linearGradient>
  </defs>
  <rect width="1200" height="700" rx="40" fill="url(#bg)"/>
  <circle cx="170" cy="135" r="70" fill="#f7bf55" opacity="0.95"/>
  <path d="M0 500 C160 420 270 430 390 505 S650 590 840 520 S1050 400 1200 470 V700 H0 Z" fill="#274435"/>
  <rect x="790" y="150" width="150" height="310" rx="26" fill="#fff2d4" opacity="0.9"/>
  <rect x="805" y="210" width="120" height="230" rx="18" fill="url(#beer)"/>
  <ellipse cx="865" cy="180" rx="90" ry="45" fill="#fff6e5"/>
  <ellipse cx="850" cy="170" rx="45" ry="24" fill="#fff" opacity="0.92"/>
  <ellipse cx="900" cy="165" rx="38" ry="20" fill="#fff" opacity="0.95"/>
  <path d="M175 540 C250 460 355 430 475 445 C395 498 300 555 165 590 Z" fill="#18261e"/>
  <rect x="155" y="470" width="170" height="68" rx="20" fill="#111" opacity="0.75"/>
  <text x="80" y="95" font-family="Arial, Helvetica, sans-serif" font-size="62" font-weight="700" fill="#ffe2a5">Bayreuth</text>
  <text x="80" y="160" font-family="Arial, Helvetica, sans-serif" font-size="42" fill="#f2ead8">Maisel &amp; Friends</text>
  <text x="80" y="615" font-family="Arial, Helvetica, sans-serif" font-size="34" fill="#f2ead8">Bier-Erlebniswelt · Katakomben · Auftaktabend</text>
</svg>
